<svg id="visual" viewBox="0 0 1960 64" width="1960" height="64" xmlns="http://www.w3.org/2000/svg" xmlns:xlink="http://www.w3.org/1999/xlink" version="1.1"><path d="M0 34L10.5 30C21 26 42 18 63 15.7C84 13.3 105 16.7 126.2 19.7C147.3 22.7 168.7 25.3 189.8 29.5C211 33.7 232 39.3 253 41.7C274 44 295 43 316 36.7C337 30.3 358 18.7 379.2 14.7C400.3 10.7 421.7 14.3 442.8 17C464 19.7 485 21.3 506 24.5C527 27.7 548 32.3 569 33C590 33.7 611 30.3 632 26.5C653 22.7 674 18.3 695.2 14.2C716.3 10 737.7 6 758.8 13.7C780 21.3 801 40.7 822 48C843 55.3 864 50.7 885 48.7C906 46.7 927 47.3 948.2 45.3C969.3 43.3 990.7 38.7 1011.8 39C1033 39.3 1054 44.7 1075 49.2C1096 53.7 1117 57.3 1138 51.5C1159 45.7 1180 30.3 1201.2 21C1222.3 11.7 1243.7 8.3 1264.8 6.7C1286 5 1307 5 1328 7.7C1349 10.3 1370 15.7 1391 22.3C1412 29 1433 37 1454 33.5C1475 30 1496 15 1517.2 11C1538.3 7 1559.7 14 1580.8 24.3C1602 34.7 1623 48.3 1644 48.5C1665 48.7 1686 35.3 1707 29.2C1728 23 1749 24 1770.2 29.8C1791.3 35.7 1812.7 46.3 1833.8 42.2C1855 38 1876 19 1897 12.7C1918 6.3 1939 12.7 1949.5 15.8L1960 19L1960 0L1949.5 0C1939 0 1918 0 1897 0C1876 0 1855 0 1833.8 0C1812.7 0 1791.3 0 1770.2 0C1749 0 1728 0 1707 0C1686 0 1665 0 1644 0C1623 0 1602 0 1580.8 0C1559.7 0 1538.3 0 1517.2 0C1496 0 1475 0 1454 0C1433 0 1412 0 1391 0C1370 0 1349 0 1328 0C1307 0 1286 0 1264.8 0C1243.7 0 1222.3 0 1201.2 0C1180 0 1159 0 1138 0C1117 0 1096 0 1075 0C1054 0 1033 0 1011.8 0C990.7 0 969.3 0 948.2 0C927 0 906 0 885 0C864 0 843 0 822 0C801 0 780 0 758.8 0C737.7 0 716.3 0 695.2 0C674 0 653 0 632 0C611 0 590 0 569 0C548 0 527 0 506 0C485 0 464 0 442.8 0C421.7 0 400.3 0 379.2 0C358 0 337 0 316 0C295 0 274 0 253 0C232 0 211 0 189.8 0C168.7 0 147.3 0 126.2 0C105 0 84 0 63 0C42 0 21 0 10.5 0L0 0Z" fill="#0066FF" stroke-linecap="round" stroke-linejoin="miter"></path></svg>