<svg id="visual" viewBox="0 0 960 540" width="960" height="540" xmlns="http://www.w3.org/2000/svg" xmlns:xlink="http://www.w3.org/1999/xlink" version="1.1"><rect x="0" y="0" width="960" height="540" fill="#001220"></rect><path d="M0 29L6.3 27.8C12.7 26.7 25.3 24.3 38.2 23.8C51 23.3 64 24.7 76.8 23.8C89.7 23 102.3 20 115.2 22.2C128 24.3 141 31.7 153.8 35.3C166.7 39 179.3 39 192 35.3C204.7 31.7 217.3 24.3 230.2 23.8C243 23.3 256 29.7 268.8 32.7C281.7 35.7 294.3 35.3 307.2 35.8C320 36.3 333 37.7 345.8 35.2C358.7 32.7 371.3 26.3 384 22.2C396.7 18 409.3 16 422.2 16.2C435 16.3 448 18.7 460.8 21C473.7 23.3 486.3 25.7 499.2 26.7C512 27.7 525 27.3 537.8 25.8C550.7 24.3 563.3 21.7 576 23C588.7 24.3 601.3 29.7 614.2 28.7C627 27.7 640 20.3 652.8 20.3C665.7 20.3 678.3 27.7 691.2 30.5C704 33.3 717 31.7 729.8 29.8C742.7 28 755.3 26 768 24.7C780.7 23.3 793.3 22.7 806.2 22.3C819 22 832 22 844.8 23.2C857.7 24.3 870.3 26.7 883.2 25.3C896 24 909 19 921.8 19.8C934.7 20.7 947.3 27.3 953.7 30.7L960 34L960 0L953.7 0C947.3 0 934.7 0 921.8 0C909 0 896 0 883.2 0C870.3 0 857.7 0 844.8 0C832 0 819 0 806.2 0C793.3 0 780.7 0 768 0C755.3 0 742.7 0 729.8 0C717 0 704 0 691.2 0C678.3 0 665.7 0 652.8 0C640 0 627 0 614.2 0C601.3 0 588.7 0 576 0C563.3 0 550.7 0 537.8 0C525 0 512 0 499.2 0C486.3 0 473.7 0 460.8 0C448 0 435 0 422.2 0C409.3 0 396.7 0 384 0C371.3 0 358.7 0 345.8 0C333 0 320 0 307.2 0C294.3 0 281.7 0 268.8 0C256 0 243 0 230.2 0C217.3 0 204.7 0 192 0C179.3 0 166.7 0 153.8 0C141 0 128 0 115.2 0C102.3 0 89.7 0 76.8 0C64 0 51 0 38.2 0C25.3 0 12.7 0 6.3 0L0 0Z" fill="#0066FF" stroke-linecap="round" stroke-linejoin="miter"></path></svg>